<svg id="Capa_2" data-name="Capa 2" xmlns="http://www.w3.org/2000/svg" viewBox="0 0 1080 1080"><defs><style>.cls-1{fill:#0089d4;}.cls-2{fill:none;stroke:#fff;stroke-linecap:round;stroke-linejoin:round;stroke-width:30px;}</style></defs><title>check</title><path class="cls-1" d="M578.33,173.41l42.36,27.22A70.9,70.9,0,0,0,659,211.89h50.36a70.9,70.9,0,0,1,64.49,41.45l20.92,45.8A70.84,70.84,0,0,0,821,329.33l42.36,27.22a70.89,70.89,0,0,1,31.84,69.74L888,476.13a70.89,70.89,0,0,0,5.68,39.54l20.92,45.81a70.89,70.89,0,0,1-10.91,75.88l-33,38a71,71,0,0,0-16.6,36.34L847,761.59a70.89,70.89,0,0,1-50.21,57.94l-48.31,14.19a70.86,70.86,0,0,0-33.61,21.6l-33,38A70.9,70.9,0,0,1,608.29,915L560,900.78a70.85,70.85,0,0,0-39.94,0L471.71,915a70.9,70.9,0,0,1-73.56-21.6l-33-38a70.86,70.86,0,0,0-33.61-21.6l-48.31-14.19a70.89,70.89,0,0,1-50.21-57.94l-7.16-49.84a71,71,0,0,0-16.6-36.34l-33-38a70.89,70.89,0,0,1-10.91-75.88l20.92-45.81A70.89,70.89,0,0,0,192,476.13l-7.16-49.84a70.89,70.89,0,0,1,31.84-69.74l42.36-27.22a70.84,70.84,0,0,0,26.16-30.19l20.92-45.8a70.9,70.9,0,0,1,64.49-41.45H421a70.9,70.9,0,0,0,38.33-11.26l42.36-27.22A70.88,70.88,0,0,1,578.33,173.41Z"/><polyline class="cls-2" points="351.41 540 494.23 666.95 728.59 413.05"/></svg>