<svg id="Capa_2" data-name="Capa 2" xmlns="http://www.w3.org/2000/svg" viewBox="0 0 1080 1080"><defs><style>.cls-1{fill:none;stroke:#fff;stroke-linecap:round;stroke-miterlimit:10;stroke-width:30px;}</style></defs><title>heart</title><path class="cls-1" d="M872.07,295A224.39,224.39,0,0,0,558,262.47a29,29,0,0,1-36,0A224.39,224.39,0,0,0,207.93,295c-74.59,90.35-61.16,224.89,21.68,307.73l231.8,231.81a111.15,111.15,0,0,0,157.18,0L850.39,602.7C933.23,519.86,946.66,385.32,872.07,295Z"/><path class="cls-1" d="M836.4,445.11a137.68,137.68,0,0,0-31.23-82.5,143.51,143.51,0,0,0-115-52.53"/></svg>