<svg id="Capa_2" data-name="Capa 2" xmlns="http://www.w3.org/2000/svg" viewBox="0 0 1080 1080"><defs><style>.cls-1{fill:#fff;}</style></defs><title>image</title><path class="cls-1" d="M677.38,159H402.62C268.07,159,159,268.07,159,402.62V677.38C159,811.93,268.07,921,402.62,921H677.38C811.93,921,921,811.93,921,677.38V402.62C921,268.07,811.93,159,677.38,159ZM397.12,301.87a95.26,95.26,0,1,1-95.25,95.25A95.25,95.25,0,0,1,397.12,301.87ZM859.82,728c-31.08,84.89-112.57,145.43-208.06,145.43H428.24A219.51,219.51,0,0,1,330,850.31a51.74,51.74,0,0,1-19.22-76l61-87A47.53,47.53,0,0,1,435.23,674l82.86,49.84a47.52,47.52,0,0,0,63.18-13.33L680,572.7c17.78-24.77,54-27,74.29-4.13L849.81,676A51.55,51.55,0,0,1,859.82,728Z"/></svg>