<svg id="Capa_2" data-name="Capa 2" xmlns="http://www.w3.org/2000/svg" viewBox="0 0 1080 1080"><defs><style>.cls-1{fill:#f2f2f2;}</style></defs><title>logo</title><path class="cls-1" d="M473.39,609.48v-189H438.76V641.08h91.63v-31.6Z"/><path class="cls-1" d="M596,609.48v-189H561.33V641.08H653v-31.6Z"/><path class="cls-1" d="M778.36,452V420.47H683.91V641.08h94.45v-31.6H718.54V544.89h47.55V513.4H718.54V452Z"/><path class="cls-1" d="M916,494.84V473.45c0-35.4-17.58-55.48-51.67-55.48s-51.68,20.08-51.68,55.48V588.1c0,35.28,17.69,55.47,51.68,55.47S916,623.38,916,588.1V558.78H883.24v31.49c0,15.74-6.84,21.49-17.92,21.49s-17.91-5.75-17.91-21.49V471.17c0-15.75,6.84-21.72,17.91-21.72s17.92,6,17.92,21.72v23.67Z"/><path class="cls-1" d="M942.84,420.47V452H979.1V641.08h34.63V452H1050V420.47Z"/><path class="cls-1" d="M230.85,339.15C119.9,339.15,30,429,30,540s89.9,200.85,200.85,200.85S431.7,651,431.7,540,341.8,339.15,230.85,339.15Zm29.32,155.69H227.38V471.17c0-15.75-6.95-21.72-18-21.72s-17.91,6-17.91,21.72v119.1c0,15.74,6.95,21.49,17.91,21.49s18-5.75,18-21.49V549.66H211.63V518.18h48.54V588.1c0,35.28-17.7,55.47-51.68,55.47s-51.68-20.19-51.68-55.47V473.45c0-35.4,17.58-55.48,51.68-55.48s51.68,20.08,51.68,55.48ZM348,643.57c-34,0-52.55-20.19-52.55-55.47V473.45C295.45,438.05,314,418,348,418s52.65,20.08,52.65,55.48V588.1C400.65,623.38,382.09,643.57,348,643.57Zm0-194.12c-11,0-17.92,6-17.92,21.72v119.1c0,15.74,6.95,21.82,17.92,21.82s18-6.08,18-21.82V471.17C366,455.42,359.07,449.45,348,449.45Z"/></svg>