<svg id="Capa_2" data-name="Capa 2" xmlns="http://www.w3.org/2000/svg" viewBox="0 0 1080 1080"><defs><style>.cls-1{fill:#fff;}</style></defs><title>wallet-fill</title><path class="cls-1" d="M728.24,440.61a99.39,99.39,0,0,0,0,198.78H921V440.61Zm66.26,122H729.75a22.59,22.59,0,0,1,0-45.18H794.5a22.59,22.59,0,0,1,0,45.18ZM583.67,540c0-79.71,64.86-144.57,144.57-144.57H918.88C904.66,298.31,821,223.75,720,223.75H360c-111,0-201,90-201,201.05V655.2c0,111,90,201,201,201H720c101.06,0,184.7-74.56,198.92-171.68H728.24C648.53,684.57,583.67,619.71,583.67,540ZM515.91,406H315.62a22.59,22.59,0,0,1,0-45.18H515.91a22.59,22.59,0,0,1,0,45.18Z"/></svg>