<?xml version="1.0" encoding="utf-8"?>
<!-- Generator: Adobe Illustrator 23.0.0, SVG Export Plug-In . SVG Version: 6.00 Build 0)  -->
<svg version="1.1" id="Your_design" xmlns="http://www.w3.org/2000/svg" xmlns:xlink="http://www.w3.org/1999/xlink" x="0px"
	 y="0px" viewBox="0 0 632 126.6" style="enable-background:new 0 0 632 126.6;" xml:space="preserve">
<style type="text/css">
	.st0{fill:#7A7A7A;}
</style>
<polygon class="st0" points="38.2,53.2 62.8,28.6 87.4,53.2 101.7,38.9 62.8,0 23.9,38.9 "/>
<rect x="3.6" y="53.2" transform="matrix(0.7071 -0.7071 0.7071 0.7071 -40.7321 28.2713)" class="st0" width="20.2" height="20.2"/>
<polygon class="st0" points="38.2,73.4 62.8,98 87.4,73.4 101.7,87.7 101.7,87.7 62.8,126.6 23.9,87.7 23.8,87.7 "/>
<rect x="101.6" y="53.2" transform="matrix(0.7071 -0.7071 0.7071 0.7071 -12.0337 97.5687)" class="st0" width="20.2" height="20.2"/>
<polygon class="st0" points="77.3,63.3 77.3,63.3 62.8,48.8 52,59.5 52,59.5 50.8,60.7 48.3,63.3 48.3,63.3 48.2,63.3 48.3,63.3 
	62.8,77.8 77.3,63.3 77.3,63.3 "/>
<path class="st0" d="M148.4,30.7h31.1c7.7,0,13.6,2,17.5,5.9c3.1,3.1,4.6,6.9,4.6,11.4v0.2c0,1.9-0.2,3.6-0.7,5.1
	c-0.5,1.5-1.1,2.8-1.9,4c-0.8,1.2-1.7,2.2-2.8,3.1c-1,0.9-2.2,1.7-3.4,2.3c3.9,1.5,6.9,3.5,9.2,6c2.2,2.5,3.3,6,3.3,10.5v0.2
	c0,3.1-0.6,5.8-1.8,8.1c-1.2,2.3-2.9,4.2-5.1,5.8c-2.2,1.5-4.9,2.7-7.9,3.5c-3.1,0.8-6.5,1.2-10.3,1.2h-31.9V30.7z M176.4,57.8
	c3.3,0,5.9-0.6,7.8-1.7c1.9-1.1,2.9-2.9,2.9-5.4v-0.2c0-2.2-0.8-3.9-2.5-5.1c-1.7-1.2-4.1-1.8-7.2-1.8h-14.6v14.2
	C162.8,57.8,176.4,57.8,176.4,57.8z M180.3,84.9c3.3,0,5.8-0.6,7.7-1.8c1.9-1.2,2.8-3,2.8-5.5v-0.2c0-2.2-0.9-4-2.6-5.3
	c-1.7-1.3-4.5-2-8.3-2h-17.1v14.8L180.3,84.9L180.3,84.9z"/>
<path class="st0" d="M223.9,30.7h14.8v67.1h-14.8V30.7z"/>
<path class="st0" d="M261,30.7h13.6L306.1,72V30.7h14.6v67.1h-12.6l-32.5-42.7v42.7H261V30.7z"/>
<path class="st0" d="M365.4,30.2H379l28.8,67.6h-15.4l-6.1-15.1h-28.4l-6.1,15.1h-15.1L365.4,30.2z M380.9,69.7L372,47.9l-8.9,21.8
	H380.9z"/>
<path class="st0" d="M423.7,30.7h13.6L468.8,72V30.7h14.6v67.1h-12.6l-32.5-42.7v42.7h-14.6V30.7z"/>
<path class="st0" d="M536.6,99c-4.9,0-9.5-0.9-13.7-2.7s-7.9-4.2-10.9-7.3c-3.1-3.1-5.5-6.8-7.2-11c-1.7-4.2-2.6-8.7-2.6-13.5v-0.2
	c0-4.8,0.9-9.3,2.6-13.5c1.7-4.2,4.1-7.9,7.2-11c3.1-3.2,6.7-5.7,11-7.5s9-2.7,14.2-2.7c3.1,0,6,0.3,8.6,0.8
	c2.6,0.5,4.9,1.2,7.1,2.1c2.1,0.9,4.1,2,5.9,3.3c1.8,1.3,3.5,2.7,5,4.2l-9.4,10.8c-2.6-2.4-5.3-4.2-8-5.6c-2.7-1.3-5.8-2-9.2-2
	c-2.8,0-5.4,0.5-7.8,1.6c-2.4,1.1-4.5,2.6-6.2,4.5c-1.7,1.9-3.1,4.1-4,6.7c-1,2.5-1.4,5.2-1.4,8.1v0.2c0,2.9,0.5,5.6,1.4,8.2
	c1,2.6,2.3,4.8,4,6.7c1.7,1.9,3.7,3.4,6.1,4.6c2.4,1.1,5,1.7,7.9,1.7c3.8,0,7.1-0.7,9.7-2.1c2.7-1.4,5.3-3.3,7.9-5.8l9.4,9.5
	c-1.7,1.9-3.5,3.5-5.4,5c-1.9,1.5-3.9,2.7-6.1,3.8c-2.2,1.1-4.6,1.9-7.2,2.4C542.8,98.7,539.8,99,536.6,99z"/>
<path class="st0" d="M581.5,30.7H632v13.1h-36v13.6h31.7v13.1H596v14.1h36.4v13.1h-51V30.7z"/>
</svg>
