<?xml version="1.0" encoding="utf-8"?>
<!-- Generator: Adobe Illustrator 23.0.0, SVG Export Plug-In . SVG Version: 6.00 Build 0)  -->
<svg version="1.1" id="Capa_1" xmlns="http://www.w3.org/2000/svg" xmlns:xlink="http://www.w3.org/1999/xlink" x="0px" y="0px"
	 viewBox="0 0 893 103" style="enable-background:new 0 0 893 103;" xml:space="preserve">
<style type="text/css">
	.st0{fill-rule:evenodd;clip-rule:evenodd;fill:#7A7A7A;}
</style>
<title>logo</title>
<desc>Created with Sketch.</desc>
<g id="Page-1">
	<g transform="translate(-129.395811, -1176.000000)">
		<g id="logo-w-bg" transform="translate(2.000000, 1105.000000)">
			<g id="logo" transform="translate(128.000000, 71.000000)">
				<path id="Path-1-Copy-7" class="st0" d="M791.9,88.4c4.8,5.1,31.1,29.4,72.5,1.2c29.9-23.3,29.1-73.8,26.3-89
					C889.7,2.8,855,78.8,791.9,88.4z M890.7,0.6c-0.4-0.2-38.8-5.4-76.9,19.1c-23.6,15.2-26.7,37.5-25.7,52.3
					C843.5,65.8,889.4,2.3,890.7,0.6z"/>
				<path id="Path-1-Copy-6" class="st0" d="M890.7,0.6c-0.4-0.2-38.8-5.4-76.9,19.1c-23.6,15.2-26.7,37.5-25.7,52.3
					C843.5,65.8,889.4,2.3,890.7,0.6z"/>
				<path id="BITFINEX-Copy-2" class="st0" d="M61.7,85.4H18.6V62.5h43.1c10.8,0,16.3,5.1,16.3,11.8C77.9,80.8,72.5,85.4,61.7,85.4
					L61.7,85.4z M60.3,50.2H18.6V30.9h41.7c11.3,0,15.8,4,15.8,9.5C76.1,45.4,70.9,50.2,60.3,50.2L60.3,50.2z M71.3,56.1
					c18.1-0.6,24.7-9.6,24.7-19.4c0-10.8-8.5-19.7-29.4-19.7H0v82.1h68.6c17.1,0,29.8-7.1,29.8-22.5C98.4,65.8,91.3,56.5,71.3,56.1
					L71.3,56.1z M120.4,17v82.1H139V17H120.4z M214.4,32.6h41V17H154.9v15.6h40.9v66.6h18.6V32.6z M271.3,17v82.1h18.6V67.1h43.6
					V53.6h-43.6V31.2h70.9V17H271.3z M375.8,17v82.1h18.6V17H375.8z M438,37l61.7,62.1h21.1V17h-18.4v59.2L443.2,17h-23.6v82.1H438
					V37z M545.9,17v82.1h91V85.3h-72.4V62.7h43.4V50h-43.4V31.2h72.4V17H545.9z M761.5,17h-24.6l-31.4,28.9L674.5,17h-24.9
					l43.8,40.5l-45.4,41.7h24.6l32.9-30.3l32.8,30.3h25l-45.5-41.8L761.5,17z"/>
			</g>
		</g>
	</g>
</g>
</svg>
