<?xml version="1.0" encoding="utf-8"?>
<!-- Generator: Adobe Illustrator 23.0.0, SVG Export Plug-In . SVG Version: 6.00 Build 0)  -->
<svg version="1.1"
	 id="Layer_1" xmlns:cc="http://creativecommons.org/ns#" xmlns:dc="http://purl.org/dc/elements/1.1/" xmlns:inkscape="http://www.inkscape.org/namespaces/inkscape" xmlns:rdf="http://www.w3.org/1999/02/22-rdf-syntax-ns#" xmlns:sodipodi="http://sodipodi.sourceforge.net/DTD/sodipodi-0.dtd" xmlns:svg="http://www.w3.org/2000/svg"
	 xmlns="http://www.w3.org/2000/svg" xmlns:xlink="http://www.w3.org/1999/xlink" x="0px" y="0px" viewBox="0 0 1426 153"
	 style="enable-background:new 0 0 1426 153;" xml:space="preserve">
<style type="text/css">
	.st0{fill:#7A7A7A;}
</style>
<sodipodi:namedview  bordercolor="#666666" borderopacity="1" fit-margin-bottom="0" fit-margin-left="0" fit-margin-right="0" fit-margin-top="0" gridtolerance="10" guidetolerance="10" id="namedview45" inkscape:current-layer="Layer_1" inkscape:cx="727.65811" inkscape:cy="-116.00908" inkscape:pageopacity="0" inkscape:pageshadow="2" inkscape:window-height="749" inkscape:window-maximized="1" inkscape:window-width="1210" inkscape:window-x="150" inkscape:window-y="0" inkscape:zoom="0.32" objecttolerance="10" pagecolor="#07d0ff" showgrid="false">
	</sodipodi:namedview>
<g id="g3" transform="translate(0,-464.2)">
	<g id="g5">
		<path id="path7" inkscape:connector-curvature="0" class="st0" d="M102.2,537.4c13-5.7,22.7-15.7,22.7-32.7v-0.4
			c0-10.1-3.6-17.8-9.5-23.7c-8.6-8.6-21.6-13.2-40.1-13.2H0v146.8h75.8c35,0,55.6-15.3,55.6-40.5v-0.4
			C131.3,553.3,120,543.2,102.2,537.4L102.2,537.4L102.2,537.4z M39.7,500h26.4c12.1,0,18.5,4.6,18.5,12.6v0.4
			c0,8.6-6.9,12.8-19.3,12.8H39.7L39.7,500C39.7,500,39.7,500,39.7,500z M90.6,568c0,8.6-7.1,13.4-19.5,13.4H39.6v-27h31
			c13.6,0,19.9,5.2,19.9,13.2L90.6,568L90.6,568L90.6,568z"/>
	</g>
	<g id="g9">
		<polygon id="polygon11" class="st0" points="190,467.3 149.4,467.3 149.4,614 261.1,614 261.1,578.5 190,578.5 		"/>
	</g>
	<g id="g13">
		<path id="path15" inkscape:connector-curvature="0" class="st0" d="M344.4,464.4c-45.3,0-79.3,34.2-79.3,76.4v0.5
			c0,42.2,33.5,75.9,78.8,75.9s79.3-34.2,79.3-76.4v-0.5C423.2,498.1,389.7,464.4,344.4,464.4L344.4,464.4z M381.7,541.1
			c0,21.2-14.8,39.3-37.4,39.3c-22.3,0-37.6-18.4-37.6-39.6v-0.5c0-21.2,14.8-39.3,37.1-39.3c22.4,0,37.7,18.4,37.7,39.6v0.5H381.7
			L381.7,541.1z"/>
	</g>
	<g id="g17">
		<path id="path19" inkscape:connector-curvature="0" class="st0" d="M516.4,579.8c-20.6,0-34.9-17.2-34.9-39.3V540
			c0-21.3,14.5-38.8,34.9-38.8c14.1,0,23.6,6.8,32.1,17.2l30.6-23.6c-13-18.1-32.3-30.6-62.3-30.6c-44.5,0-77.3,33.5-77.3,76.4v0.5
			c0,43.7,33.7,75.9,75.7,75.9c32.5,0,51.2-14.1,65.1-33.1l-30.9-21.8C540.7,572.7,531.7,579.8,516.4,579.8"/>
	</g>
	<g id="g21">
		<path id="path23" inkscape:connector-curvature="0" class="st0" d="M811,579.8c-20.6,0-35.1-17.2-35.1-39.3V540
			c0-21.3,14.5-38.8,35.1-38.8c14.1,0,23.6,6.8,32.1,17.2l30.6-23.6c-13-18.1-32.3-30.6-62.3-30.6c-44.5,0-77.4,33.5-77.4,76.4v0.5
			c0,6.5,0.9,12.7,2.3,18.7l0,0c8,33.8,37.6,57.2,73.3,57.2c32.5,0,51.2-14.1,65.1-33.1l-30.6-21.8
			C835.4,572.7,826.3,579.8,811,579.8"/>
	</g>
	<g id="g25">
		<polygon id="polygon27" class="st0" points="932.9,558.2 985.2,558.2 985.2,614 1025.8,614 1025.8,467.3 985.2,467.3 985.2,522.2 
			932.9,522.2 932.9,467.3 892.3,467.3 892.3,614 932.9,614 		"/>
	</g>
	<g id="g29">
		<path id="path31" inkscape:connector-curvature="0" class="st0" d="M1141.9,466.2h-39.3L1040.2,614h42.8l10.5-26.3h56.6l10.7,26.3
			h43.6L1141.9,466.2L1141.9,466.2L1141.9,466.2z M1105.4,556.2l16.5-41.7l16.4,41.7H1105.4z"/>
	</g>
	<g id="g33">
		<rect id="rect35" x="1219.5" y="467.3" class="st0" width="40.8" height="146.8"/>
	</g>
	<g id="g37">
		<polygon id="polygon39" class="st0" points="1325.2,467.3 1287.3,467.3 1287.3,614 1327.5,614 1327.5,533.5 1390.3,614 1426,614 
			1426,467.3 1385.6,467.3 1385.6,544.9 		"/>
	</g>
	<g id="g41">
		<polygon id="polygon43" class="st0" points="690,614 690,614 730.7,614 675.5,534.9 737.1,467.2 729.4,467.2 717.5,467.2 
			701.7,467.2 688.8,467.2 688.8,467.2 688.8,467.2 638.2,526.7 638.2,467.2 597.6,467.2 597.6,614 638.2,614 638.2,576 
			653.1,559.6 		"/>
	</g>
</g>
</svg>
