<?xml version="1.0" encoding="utf-8"?>
<!-- Generator: Adobe Illustrator 23.0.0, SVG Export Plug-In . SVG Version: 6.00 Build 0)  -->
<svg version="1.1" id="Layer_1" xmlns="http://www.w3.org/2000/svg" xmlns:xlink="http://www.w3.org/1999/xlink" x="0px" y="0px"
	 viewBox="0 0 160 40" style="enable-background:new 0 0 160 40;" xml:space="preserve">
<style type="text/css">
	.st0{fill:#7A7A7A;}
</style>
<path class="st0" d="M36,0H4C1.8,0,0,1.8,0,4v32c0,2.2,1.8,4,4,4h32c2.2,0,4-1.8,4-4V4C40,1.8,38.2,0,36,0z M32,26.6
	c0,1.1-0.9,2-2,2s-2-0.9-2-2v-8.3c0-1.7-1.3-3-3-3s-3,1.3-3,3v8.3c0,1.1-0.9,2-2,2s-2-0.9-2-2v-8.3c0-1.7-1.3-3-3-3s-3,1.3-3,3v8.3
	c0,1.1-0.9,2-2,2s-2-0.9-2-2v-8.3c0-3.9,3.1-7,7-7c2,0,3.7,0.8,5,2.1c1.3-1.3,3-2.1,5-2.1c3.9,0,7,3.2,7,7V26.6z"/>
<path class="st0" d="M67,14c-1.6,0-3.1,0.7-4,1.9c-0.9-1.2-2.4-1.9-4-1.9c-2.8,0-5,2.1-5,4.8V25c0,0.6,0.4,1,1,1s1-0.4,1-1v-6.3
	c0-1.5,1.3-2.8,3-2.8s3,1.2,3,2.8V25c0,0.6,0.4,1,1,1s1-0.4,1-1v-6.3c0-1.5,1.3-2.8,3-2.8s3,1.2,3,2.8V25c0,0.6,0.4,1,1,1s1-0.4,1-1
	v-6.3C72,16.1,69.8,14,67,14z M111,14c-2.8,0-5,2.3-5,5.1V25c0,0.6,0.4,1,1,1s1-0.4,1-1v-5.9c0-1.7,1.3-3.1,3-3.1s3,1.4,3,3.1
	c0,0.6,0.4,1,1,1s1-0.4,1-1C116,16.3,113.8,14,111,14z M76,14c-0.6,0-1,0.4-1,1v10c0,0.6,0.4,1,1,1s1-0.4,1-1V15
	C77,14.4,76.6,14,76,14z M136,24h-1.9c-1.7,0-3.1-1.5-3.1-3.3V16h3c0.6,0,1-0.4,1-1s-0.4-1-1-1h-3v-3c0-0.6-0.4-1-1-1s-1,0.4-1,1
	v9.7c0,2.9,2.3,5.3,5.1,5.3h1.9c0.6,0,1-0.4,1-1S136.6,24,136,24z M148,14c-0.6,0-1,0.4-1,1v0.5c-1.1-1-2.5-1.5-4-1.5
	c-3.3,0-6,2.7-6,6s2.7,6,6,6c1.5,0,2.9-0.6,4-1.5V25c0,0.6,0.4,1,1,1s1-0.4,1-1V15C149,14.4,148.6,14,148,14z M143,24
	c-2.2,0-4-1.8-4-4s1.8-4,4-4s4,1.8,4,4S145.2,24,143,24z M121,16.4c0.5-0.2,1-0.4,1.5-0.4c1.3,0,2.2,0.4,2.7,1
	c0.3,0.5,0.9,0.6,1.4,0.3c0.5-0.3,0.6-0.9,0.3-1.4c-0.8-1.3-2.3-1.9-4.3-1.9c-0.9,0-1.7,0.2-2.5,0.6c-1.2,0.6-1.9,1.8-1.8,3.1
	c0.1,1.3,1,2.4,2.4,2.8l3.2,1c0.6,0.2,0.9,0.7,1,1.1c0,0.2,0,0.8-0.6,1.1c-0.5,0.3-1,0.4-1.6,0.4c-1.3,0-2.2-0.4-2.7-1
	c-0.3-0.5-0.9-0.6-1.4-0.3c-0.5,0.3-0.6,0.9-0.3,1.4c0.8,1.3,2.3,1.9,4.3,1.9c0.9,0,1.8-0.2,2.5-0.6c1.2-0.6,1.8-1.8,1.7-3.1
	c-0.1-1.3-1.1-2.4-2.4-2.8l-3.2-1c-0.6-0.2-0.9-0.6-1-1.1C120.2,17.3,120.3,16.7,121,16.4z M104,19.5c-0.3-3.1-2.9-5.5-6-5.5
	c-3.3,0-6,2.7-6,6s2.7,6,6,6c1.7,0,3.3-0.7,4.5-2c0.4-0.4,0.3-1-0.1-1.4s-1-0.3-1.4,0.1c-0.8,0.8-1.8,1.3-3,1.3
	c-1.9,0-3.4-1.3-3.9-3h8.9c0.6,0,1-0.4,1-1V19.5z M94.1,19c0.4-1.7,2-3,3.9-3s3.4,1.3,3.9,3H94.1z M76,10c-0.6,0-1,0.4-1,1
	s0.4,1,1,1s1-0.4,1-1S76.6,10,76,10z M85,14c-2.8,0-5,2.3-5,5.1V25c0,0.6,0.4,1,1,1s1-0.4,1-1v-5.9c0-1.7,1.3-3.1,3-3.1s3,1.4,3,3.1
	V25c0,0.6,0.4,1,1,1s1-0.4,1-1v-5.9C90,16.3,87.8,14,85,14z M159,24h-1.9c-1.7,0-3.1-1.5-3.1-3.3V16h3c0.6,0,1-0.4,1-1s-0.4-1-1-1
	h-3v-3c0-0.6-0.4-1-1-1s-1,0.4-1,1v9.7c0,2.9,2.3,5.3,5.1,5.3h1.9c0.6,0,1-0.4,1-1S159.6,24,159,24z"/>
</svg>
